<?xml version="1.0" encoding="utf-8"?>
<!-- Generator: Adobe Illustrator 22.1.0, SVG Export Plug-In . SVG Version: 6.00 Build 0)  -->
<svg version="1.1" id="레이어_1" xmlns="http://www.w3.org/2000/svg" xmlns:xlink="http://www.w3.org/1999/xlink" x="0px"
	 y="0px" viewBox="0 0 24 24" style="enable-background:new 0 0 24 24;" xml:space="preserve">
<style type="text/css">
	.st0{fill:#333333;}
</style>
<g>
	<g>
		<path class="st0" d="M23.7,8.4C20.6,5.3,16.4,3.6,12,3.6S3.4,5.3,0.3,8.4C0.2,8.6,0.2,8.9,0.3,9s0.4,0.2,0.6,0
			c3-3,6.9-4.6,11.1-4.6S20.1,6.1,23.1,9c0.1,0.1,0.2,0.1,0.3,0.1c0.1,0,0.2,0,0.3-0.1C23.8,8.9,23.8,8.6,23.7,8.4z"/>
		<path class="st0" d="M23.4,9.3c-0.1,0-0.3-0.1-0.4-0.2c-2.9-2.9-6.8-4.5-11-4.5c-4.2,0-8.1,1.6-11,4.5c-0.2,0.2-0.5,0.2-0.7,0
			C0.2,9,0.1,8.9,0.1,8.7c0-0.1,0.1-0.3,0.2-0.4C3.4,5.2,7.6,3.5,12,3.5s8.6,1.7,11.7,4.9l0,0l0,0l0,0c0.1,0.1,0.2,0.2,0.2,0.4
			c0,0.1-0.1,0.3-0.2,0.4C23.6,9.2,23.5,9.3,23.4,9.3z M12,3.7c-4.4,0-8.5,1.7-11.6,4.8C0.3,8.6,0.3,8.6,0.3,8.7
			c0,0.1,0,0.2,0.1,0.2c0.1,0.1,0.3,0.1,0.5,0c3-3,6.9-4.6,11.1-4.6S20.2,6,23.1,9c0.1,0.1,0.3,0.1,0.5,0c0.1-0.1,0.1-0.1,0.1-0.2
			c0-0.1,0-0.2-0.1-0.2l0,0C20.5,5.4,16.4,3.7,12,3.7z"/>
	</g>
	<g>
		<path class="st0" d="M2.9,10.9c-0.2,0.2-0.2,0.4,0,0.6c0.1,0.1,0.2,0.1,0.3,0.1c0.1,0,0.2,0,0.3-0.1c4.7-4.7,12.4-4.7,17.1,0
			c0.2,0.2,0.4,0.2,0.6,0c0.2-0.2,0.2-0.4,0-0.6C16.1,5.9,7.9,5.9,2.9,10.9z"/>
		<path class="st0" d="M3.2,11.8c-0.1,0-0.3-0.1-0.4-0.2c-0.2-0.2-0.2-0.5,0-0.7c5.1-5.1,13.4-5.1,18.4,0c0.2,0.2,0.2,0.5,0,0.7
			c-0.2,0.2-0.5,0.2-0.7,0c-2.3-2.3-5.3-3.5-8.5-3.5c-3.2,0-6.2,1.2-8.5,3.5C3.4,11.7,3.3,11.8,3.2,11.8z M12,7.3
			c-3.3,0-6.6,1.3-9.1,3.8c-0.1,0.1-0.1,0.3,0,0.5c0.1,0.1,0.3,0.1,0.5,0C5.7,9.2,8.7,7.9,12,7.9s6.3,1.3,8.6,3.6
			c0.1,0.1,0.3,0.1,0.5,0c0.1-0.1,0.1-0.3,0-0.5C18.6,8.5,15.3,7.3,12,7.3z"/>
	</g>
	<g>
		<path class="st0" d="M12,10.7c-2.5,0-4.9,1-6.6,2.7c-0.2,0.2-0.2,0.4,0,0.6c0.2,0.2,0.4,0.2,0.6,0c1.6-1.6,3.7-2.5,6-2.5
			s4.4,0.9,6,2.5c0.1,0.1,0.2,0.1,0.3,0.1s0.2,0,0.3-0.1c0.2-0.2,0.2-0.4,0-0.6C16.9,11.7,14.5,10.7,12,10.7z"/>
		<path class="st0" d="M5.7,14.3c-0.1,0-0.3-0.1-0.4-0.2c-0.2-0.2-0.2-0.5,0-0.7c1.8-1.8,4.2-2.8,6.7-2.8c2.5,0,4.9,1,6.7,2.8
			c0.2,0.2,0.2,0.5,0,0.7c-0.2,0.2-0.5,0.2-0.7,0c-1.6-1.6-3.7-2.5-5.9-2.5c-2.2,0-4.4,0.9-5.9,2.5C6,14.3,5.8,14.3,5.7,14.3z
			 M12,11.5c2.3,0,4.5,0.9,6.1,2.5c0.1,0.1,0.3,0.1,0.5,0c0.1-0.1,0.1-0.3,0-0.5c-1.7-1.7-4.1-2.7-6.6-2.7c-2.5,0-4.8,1-6.6,2.7
			c-0.1,0.1-0.1,0.3,0,0.5c0.1,0.1,0.3,0.1,0.5,0C7.5,12.4,9.7,11.5,12,11.5z"/>
	</g>
	<g>
		<path class="st0" d="M12,14.8c-1.6,0-2.8,1.3-2.8,2.8c0,1.6,1.3,2.8,2.8,2.8c1.6,0,2.8-1.3,2.8-2.8C14.8,16,13.6,14.8,12,14.8z
			 M12,19.6c-1.1,0-2-0.9-2-2c0-1.1,0.9-2,2-2s2,0.9,2,2C14,18.7,13.1,19.6,12,19.6z"/>
		<path class="st0" d="M12,20.5c-1.6,0-2.9-1.3-2.9-2.9c0-1.6,1.3-2.9,2.9-2.9s2.9,1.3,2.9,2.9C14.9,19.2,13.6,20.5,12,20.5z
			 M12,14.9c-1.5,0-2.7,1.2-2.7,2.7c0,1.5,1.2,2.7,2.7,2.7s2.7-1.2,2.7-2.7C14.7,16.1,13.5,14.9,12,14.9z M12,19.7
			c-1.1,0-2.1-0.9-2.1-2.1s0.9-2.1,2.1-2.1c1.1,0,2.1,0.9,2.1,2.1S13.1,19.7,12,19.7z M12,15.7c-1,0-1.9,0.8-1.9,1.9
			s0.8,1.9,1.9,1.9c1,0,1.9-0.8,1.9-1.9S13,15.7,12,15.7z"/>
	</g>
</g>
</svg>
