<?xml version="1.0" encoding="utf-8"?>
<!-- Generator: Adobe Illustrator 23.0.4, SVG Export Plug-In . SVG Version: 6.00 Build 0)  -->
<svg version="1.1" id="레이어_1" xmlns="http://www.w3.org/2000/svg" xmlns:xlink="http://www.w3.org/1999/xlink" x="0px"
	 y="0px" viewBox="0 0 22 22" style="enable-background:new 0 0 22 22;" xml:space="preserve">
<style type="text/css">
	.st0{fill:none;}
	.st1{fill:#333333;}
</style>
<title>ic_Airtel</title>
<g>
	<g id="투어_관람">
		<rect class="st0" width="22" height="22"/>
		<path class="st1" d="M19.7,19l-0.5-1.5l0.6-0.6c0.4-0.5,0.3-1.3-0.2-1.7c-0.3-0.3-0.8-0.4-1.2-0.2L18,13.6l0.7-0.7
			c0.5-0.4,0.6-1.1,0.3-1.7c-0.4-0.5-1.1-0.6-1.7-0.3l-0.7-2.2l3-3c0.9-0.9,1.6-2,2-3.1c0.2-0.5,0.2-1.1-0.1-1.5
			c-0.4-0.7-1.2-1-2-0.7c-1.2,0.4-2.4,1.1-3.3,2l-3,3L11,4.7c0.3-0.6,0.1-1.3-0.5-1.6c-0.5-0.3-1-0.2-1.4,0.2L8.4,4L7.1,3.5
			c0.2-0.5,0.2-1-0.2-1.4c-0.5-0.5-1.2-0.5-1.7,0l0,0L4.5,2.8L3,2.3c-0.1,0-0.3,0-0.4,0.1L0.9,4.1C0.8,4.2,0.8,4.4,0.8,4.5
			s0.1,0.2,0.1,0.2L1,4.8l8.8,4l-2.4,2.4l0,0L6.2,13l-4.3-1.1c-0.1,0-0.3,0-0.4,0.1l-1.1,1.1c-0.1,0.1-0.1,0.2-0.1,0.3
			s0,0.2,0.1,0.2l0,0L4,16.4c-0.2,0.5,0,1,0.3,1.4l0,0C4.7,18,5.2,18.2,5.7,18l2.6,3.6l0,0c0.1,0.1,0.2,0.1,0.2,0.1
			c0.1,0,0.2,0,0.3-0.1l1.2-1.1c0.1-0.1,0.1-0.2,0.1-0.4L9,15.8l1.8-1.2l0.1-0.1l2.4-2.4l4,8.8c0,0,0,0.1,0.1,0.1
			c0.1,0.1,0.1,0.1,0.2,0.1s0.3,0,0.4-0.1l1.7-1.7C19.7,19.3,19.7,19.1,19.7,19z M9.7,3.8c0.2-0.2,0.4-0.2,0.6,0
			c0.2,0.2,0.2,0.4,0,0.6l0,0h-0.1L9.3,4.2L9.7,3.8z M5.7,2.7c0.2-0.2,0.4-0.2,0.6,0s0.2,0.4,0,0.6l0,0l0,0L5.4,3L5.7,2.7z
			 M10.4,8.2L1.9,4.3L3,3.2L12.6,6L10.4,8.2z M1.3,13.4l0.6-0.6l3.8,1l-1.3,1.9L1.3,13.4z M5.6,17.2c-0.2,0.2-0.5,0.1-0.7,0
			c-0.2-0.2-0.2-0.5,0-0.7L8,11.7l8.8-8.8c0.8-0.8,1.9-1.5,3-1.9c0.4-0.1,0.8,0,1,0.4c0.1,0.3,0.1,0.6,0,0.9c-0.4,1.1-1,2-1.8,2.8
			L10.3,14L5.6,17.2z M9.2,20.1l-0.6,0.6l-2.2-3.1l1.9-1.3L9.2,20.1z M18.7,15.7c0.1-0.2,0.4-0.2,0.6,0l0,0c0.2,0.2,0.2,0.4,0,0.6
			l0,0L19,16.6L18.7,15.7L18.7,15.7z M17.6,11.7c0.2-0.2,0.4-0.2,0.6,0s0.2,0.4,0,0.6l0,0l-0.4,0.4L17.6,11.7L17.6,11.7z M17.7,20.1
			l-3.9-8.6L16,9.4l2.8,9.6L17.7,20.1z"/>
		<path class="st1" d="M19,2.3l-1.3,0.3l0.2,0.7L19,3l-0.3,1.1l0.7,0.2L19.7,3c0.1-0.3-0.2-0.7-0.5-0.7C19.2,2.3,19.1,2.3,19,2.3z"
			/>
	</g>
</g>
</svg>
