<?xml version="1.0" encoding="utf-8"?>
<!-- Generator: Adobe Illustrator 22.1.0, SVG Export Plug-In . SVG Version: 6.00 Build 0)  -->
<svg version="1.1" id="레이어_1" xmlns="http://www.w3.org/2000/svg" xmlns:xlink="http://www.w3.org/1999/xlink" x="0px"
	 y="0px" viewBox="0 0 24 24" style="enable-background:new 0 0 24 24;" xml:space="preserve">
<style type="text/css">
	.st0{fill:#333333;}
</style>
<path class="st0" d="M20.1,10.7c-0.5-2.9-2.2-5.8-4.7-8.2c-1-0.9-2-1.7-3.1-2.4C12.2,0.1,12.1,0,12,0c-0.1,0-0.2,0-0.3,0.1
	c-1.1,0.7-2.2,1.5-3.1,2.4c-2.5,2.4-4.2,5.3-4.7,8.2c-0.5,3,0.2,5.6,2.1,7.4c0.9,0.9,2,1.5,3.3,1.8c0.7,0.2,1.4,0.3,2.1,0.3l0,0v3.2
	c0,0.3,0.2,0.5,0.5,0.5s0.5-0.2,0.5-0.5v-3.2l0,0c0.7,0,1.4-0.1,2.2-0.3l0,0c1.3-0.3,2.4-1,3.3-1.8C19.9,16.3,20.6,13.7,20.1,10.7z
	 M17.3,17.4c-0.8,0.7-1.7,1.3-2.8,1.6c-0.6,0.1-1.3,0.2-1.9,0.3l-0.1,0v-2.4l0,0l3.7-3.5c0.1-0.1,0.2-0.2,0.2-0.3
	c0-0.1-0.1-0.3-0.2-0.3c-0.2-0.2-0.5-0.2-0.7,0l-3,2.8v-4.2l0,0l1.8-1.7c0.1-0.1,0.2-0.2,0.2-0.3c0-0.1-0.1-0.3-0.2-0.3
	c-0.2-0.2-0.5-0.2-0.7,0l-1,1v-4c0-0.3-0.2-0.5-0.5-0.5s-0.5,0.2-0.5,0.5v4l-1-1c-0.2-0.2-0.5-0.2-0.7,0C9.6,9,9.5,9.1,9.5,9.2
	s0.1,0.3,0.2,0.3l1.8,1.7v4.2l-0.1-0.1l-2.9-2.7c-0.2-0.2-0.5-0.2-0.7,0c-0.1,0.1-0.2,0.2-0.2,0.3c0,0.1,0.1,0.3,0.2,0.3l3.7,3.5
	v2.4l-0.1,0c-0.6,0-1.2-0.1-1.8-0.3c-1.1-0.3-2.1-0.8-2.8-1.6c-1.6-1.5-2.3-3.9-1.8-6.5c0.5-2.7,2-5.4,4.4-7.7
	C10.1,2.4,11,1.7,12,1.1l0,0l0,0c0.9,0.6,1.8,1.3,2.7,2.1c2.4,2.2,3.9,5,4.4,7.7C19.5,13.6,18.9,15.9,17.3,17.4z"/>
</svg>
