<?xml version="1.0" encoding="utf-8"?>
<!-- Generator: Adobe Illustrator 22.1.0, SVG Export Plug-In . SVG Version: 6.00 Build 0)  -->
<svg version="1.1" id="레이어_1" xmlns="http://www.w3.org/2000/svg" xmlns:xlink="http://www.w3.org/1999/xlink" x="0px"
	 y="0px" viewBox="0 0 24 24" style="enable-background:new 0 0 24 24;" xml:space="preserve">
<style type="text/css">
	.st0{fill:#333333;}
</style>
<g>
	<path class="st0" d="M11.1,1.9h-3c-0.3,0-0.5,0.2-0.5,0.5c0,0.3,0.2,0.5,0.5,0.5h3c0.3,0,0.5-0.2,0.5-0.5
		C11.5,2.1,11.3,1.9,11.1,1.9z"/>
	<path class="st0" d="M13.8,1.9h-0.7c-0.3,0-0.5,0.2-0.5,0.5c0,0.3,0.2,0.5,0.5,0.5h0.7c0.3,0,0.5-0.2,0.5-0.5
		C14.3,2.1,14.1,1.9,13.8,1.9z"/>
	<path class="st0" d="M6.3,18.6c0.8,0,1.4-0.6,1.4-1.4S7,15.9,6.3,15.9s-1.4,0.6-1.4,1.4S5.5,18.6,6.3,18.6z M6.3,16.8
		c0.3,0,0.5,0.2,0.5,0.5c0,0.3-0.2,0.5-0.5,0.5c-0.3,0-0.5-0.2-0.5-0.5C5.8,17,6,16.8,6.3,16.8z"/>
	<path class="st0" d="M17.7,18.6c0.8,0,1.4-0.6,1.4-1.4s-0.6-1.4-1.4-1.4s-1.4,0.6-1.4,1.4S17,18.6,17.7,18.6z M17.7,16.8
		c0.3,0,0.5,0.2,0.5,0.5c0,0.3-0.2,0.5-0.5,0.5c-0.3,0-0.5-0.2-0.5-0.5C17.3,17,17.5,16.8,17.7,16.8z"/>
	<path class="st0" d="M22.2,4.6h-1.1V2.4c0-1.3-1-2.3-2.3-2.3H5.1c-1.3,0-2.3,1-2.3,2.3v2.2H1.8c-0.6,0-1.1,0.5-1.1,1.1v3.3
		c0,0.6,0.5,1.1,1.1,1.1h1.1v8.7c0,0.7,0.4,1.3,0.9,1.7c0,0,0,0.1,0,0.1v1.6c0,0.9,0.7,1.6,1.6,1.6h0.5c0.9,0,1.6-0.7,1.6-1.6v-1.1
		h9.2v1.1c0,0.9,0.7,1.6,1.6,1.6h0.5c0.9,0,1.6-0.7,1.6-1.6v-1.6c0.5-0.4,0.9-1.1,0.9-1.8v-8.7h1.1c0.6,0,1.1-0.5,1.1-1.1V5.7
		C23.4,5.1,22.9,4.6,22.2,4.6z M1.8,9.4c-0.2,0-0.3-0.1-0.3-0.3V5.7c0-0.2,0.1-0.3,0.3-0.3h1.1v4H1.8z M6.5,22.3
		c0,0.4-0.3,0.7-0.7,0.7H5.4c-0.4,0-0.7-0.3-0.7-0.7V21c0.2,0.1,0.5,0.1,0.7,0.1h1.1V22.3z M19.3,22.3c0,0.4-0.3,0.7-0.7,0.7h-0.5
		c-0.4,0-0.7-0.3-0.7-0.7v-1.1h1.4c0.2,0,0.3,0,0.5,0V22.3z M20.2,18.9c0,0.8-0.6,1.4-1.4,1.4H5.4c-0.7,0-1.6-0.6-1.6-1.4v-4.1h16.5
		V18.9z M20.2,13.8H3.8V4.7h16.5V13.8z M20.2,3.8H3.8V2.4C3.8,1.6,4.4,1,5.1,1h13.7c0.8,0,1.4,0.6,1.4,1.4V3.8z M22.6,9.1
		c0,0.2-0.1,0.3-0.3,0.3h-1.1v-4h1.1c0.2,0,0.3,0.1,0.3,0.3V9.1z"/>
</g>
</svg>
