<?xml version="1.0" encoding="utf-8"?>
<!-- Generator: Adobe Illustrator 22.1.0, SVG Export Plug-In . SVG Version: 6.00 Build 0)  -->
<svg version="1.1" id="레이어_1" xmlns="http://www.w3.org/2000/svg" xmlns:xlink="http://www.w3.org/1999/xlink" x="0px"
	 y="0px" viewBox="0 0 24 24" style="enable-background:new 0 0 24 24;" xml:space="preserve">
<style type="text/css">
	.st0{fill:none;}
	.st1{fill:#333333;}
</style>
<g>
	<path class="st0" d="M18.3,9.4c-0.1-0.2-0.3-0.4-0.4-0.5c-0.1-0.1-0.1-0.1-0.2-0.2c-1,2.9-2,5.7-3,8.5l0.3,0.2
		c1.6-2.2,3.3-4.4,4.9-6.7c0,0-0.1,0-0.1-0.1c-0.1-0.1-0.2-0.1-0.4-0.2C19,10.2,18.7,9.9,18.3,9.4z"/>
	<path class="st0" d="M12,0.9c-0.1,0-0.3,0-0.5,0c-0.3,0-0.7,0-1.1,0.1C10.3,1,10.1,1,9.8,1.1C6.2,1.8,3.4,3.6,1.3,6.5
		C0.9,7.1,0.8,7.9,1.1,8.6C1.4,9.3,2,9.8,2.8,9.9C3.6,10,4.4,9.7,4.9,9L5,8.9c0.3-0.4,0.6-0.8,1-1.2C7.7,6.1,9.7,5.3,12,5.3
		c0.3,0,0.5,0,0.8,0c1.7,0.1,3.3,0.8,4.7,1.9c0.7,0.5,1.2,1.2,1.7,1.9l0.1,0.1c0.7,0.9,2.1,1.1,3.1,0.3c0.9-0.7,1.1-2.1,0.4-3
		C20.1,2.9,16.5,1,12,0.9z"/>
	<path class="st0" d="M13.9,16.9c0.5-1.5,1.1-3,1.6-4.5L17.1,8c-0.8-0.7-1.7-1.2-2.7-1.5L13,17.1c0.1,0,0.2,0,0.4,0
		c0.1,0,0.2,0,0.2,0C13.8,17.1,13.8,17,13.9,16.9z"/>
	<path class="st0" d="M7.1,7.9C7,8,7,8.1,7,8.2c0.4,1,0.7,2.1,1.1,3.1l0.5,1.5c0.5,1.4,1,2.7,1.5,4.1c0,0.1,0.1,0.2,0.1,0.2
		c0.2,0,0.4,0,0.6,0c0.1,0,0.1,0,0.2,0L9.7,6.5C8.7,6.8,8,7.2,7.1,7.9z"/>
	<path class="st0" d="M14,23.1C14,23.1,14,23.1,14,23.1c0.1-0.1,0.1-0.1,0.1-0.2c0-0.2,0-0.4,0-0.6l0-0.3c0-0.1,0-0.1,0-0.2
		c0-0.4,0-0.4-0.3-0.4c-0.1,0-0.1,0-0.2,0l-3.1,0c-0.1,0-0.2,0-0.3,0c-0.1,0-0.1,0-0.2,0c0,0,0,0.1,0,0.2c0,0.1,0,0.2,0,0.3
		c0,0.3,0,0.7,0,1c0,0.1,0.1,0.2,0.2,0.2c0,0,0,0,0,0H14z"/>
	<path class="st0" d="M14.3,17.9c0,0-0.1,0-0.1,0h0c-0.7,0-1.4,0-2,0h-0.7c-0.5,0-0.9,0-1.4,0h0c0,0,0,0,0,0c0,0-0.1,0-0.1,0
		c-0.2,0-0.3,0.1-0.3,0.3c0,0.2,0.1,0.3,0.2,0.3c0.1,0,0.2,0,0.2,0c1.2,0,2.3,0,3.5,0c0.2,0,0.3,0,0.5,0c0.1,0,0.3,0,0.4,0
		c0.2,0,0.3-0.1,0.3-0.3C14.6,18.1,14.5,18,14.3,17.9z"/>
	<path class="st0" d="M6,9C5.8,9.3,5.6,9.5,5.4,9.8c-0.3,0.3-0.7,0.6-1.2,0.8L9,17.3c0.1-0.1,0.2-0.1,0.3-0.2l-3-8.5
		C6.2,8.8,6.1,8.9,6,9z"/>
	<rect x="10.9" y="19.4" class="st0" width="2.1" height="1.1"/>
	<path class="st0" d="M10.6,7c0.1,1.1,0.3,2.2,0.4,3.3c0.2,1.2,0.3,2.4,0.5,3.5c0.1,1,0.3,2,0.4,3c0,0.1,0,0.2,0.1,0.2
		c0,0,0.1,0,0.2,0c0.4-3.4,0.9-6.7,1.3-10.1l0.1-0.6c-1-0.2-2-0.2-3.1,0L10.6,7z"/>
	<path class="st1" d="M22.2,4.7c-1.6-1.8-3.7-3.1-6-3.9c-1-0.3-2.1-0.5-3.1-0.6c-0.1,0-0.1,0-0.2,0c0,0-0.1,0-0.1,0l-1.5,0
		c0,0-0.1,0-0.1,0c-0.1,0-0.1,0-0.2,0C9.3,0.3,7.7,0.7,6.3,1.4C4.1,2.4,2.2,4,0.8,6C0.1,6.9,0,8,0.4,9C0.9,10,1.8,10.6,3,10.7
		c0.2,0,0.3,0.1,0.4,0.2c0.7,1,1.5,2,2.2,3c1,1.3,2,2.7,2.9,4c0.1,0.1,0.2,0.3,0.2,0.4c0.1,0.6,0.5,1,1.1,1c0.1,0,0.2,0,0.2,0
		c0,0,0.1,0,0.1,0h0v1.3l0,0c-0.6,0.1-0.9,0.4-0.9,0.9c0,0.5,0,0.9,0,1.3c0,0.5,0.4,0.9,0.9,0.9c1.3,0,2.6,0,3.8,0
		c0.5,0,0.9-0.4,0.9-0.9c0-0.5,0-1,0-1.4c0-0.4-0.3-0.8-0.8-0.9c0,0-0.1,0-0.1,0l-0.1,0v-1.3H14c0.1,0,0.1,0,0.2,0
		c0.7,0,1.1-0.4,1.1-1.1c0-0.1,0-0.2,0.1-0.3c1.9-2.6,3.6-5,5.2-7.1c0.1-0.1,0.2-0.2,0.3-0.2c1.1-0.1,2-0.6,2.5-1.6
		c0.1-0.2,0.2-0.5,0.3-0.7c0-0.1,0.1-0.2,0.1-0.3V7.4C23.7,6.3,23,5.5,22.2,4.7L22.2,4.7z M9,17.5L9,17.5l-5-6.9l0.1,0
		c0.6-0.2,1-0.5,1.3-0.8C5.5,9.5,5.7,9.2,6,8.9c0.1-0.1,0.2-0.3,0.3-0.4l0.1-0.1l0,0.1l3.1,8.7l0,0C9.3,17.3,9.2,17.3,9,17.5L9,17.5
		z M13.6,7c-0.4,3.4-0.9,6.8-1.3,10.1l0,0l0,0c-0.1,0-0.2,0-0.2,0c0,0-0.1,0-0.1,0c-0.1,0-0.1-0.1-0.1-0.3c-0.1-1-0.3-2-0.4-3
		c-0.2-1.2-0.3-2.4-0.5-3.5c-0.1-1.1-0.3-2.2-0.4-3.3l-0.1-0.8l0,0c1.1-0.2,2.1-0.2,3.2,0l0,0L13.6,7z M14.3,6.4L14.3,6.4
		c1.1,0.3,2,0.8,2.9,1.6l0,0l-1.6,4.4c-0.5,1.5-1.1,3-1.6,4.5c-0.1,0.2-0.2,0.3-0.3,0.3c0,0,0,0-0.1,0c-0.1,0-0.3,0-0.4,0
		c-0.1,0-0.1,0-0.2,0h-0.1l0-0.1L14.3,6.4z M11.1,17.2L11.1,17.2c-0.2,0-0.4,0-0.5,0c-0.1,0-0.2,0-0.4,0c-0.1,0-0.2-0.1-0.2-0.2
		c-0.5-1.4-1-2.8-1.5-4.1L8,11.3c-0.4-1-0.7-2.1-1.1-3.1C6.9,8.1,6.9,8,7,7.8c0.9-0.7,1.7-1.1,2.6-1.4l0.1,0l0,0.1L11.1,17.2z
		 M14.2,21.9c0,0,0,0.1,0,0.2v0.3c0,0.2,0,0.4,0,0.6c0,0.1,0,0.1,0,0.2h0v0.1H14c0,0,0,0-0.1,0c-0.1,0-0.1,0-0.1,0c0,0,0,0-0.1,0v0
		l-3,0c-0.1,0-0.1,0-0.2,0c-0.1,0-0.1,0-0.2,0c-0.1,0-0.1,0-0.2,0H10v0c0,0,0,0,0,0c0,0,0,0,0,0v0c-0.1-0.1-0.1-0.1-0.1-0.2
		c0-0.3,0-0.7,0-1c0-0.1,0-0.2,0-0.3c0-0.1,0-0.2,0.1-0.2c0.1-0.1,0.1-0.1,0.2-0.1c0.1,0,0.2,0,0.3,0h3.1c0.1,0,0.2,0,0.2,0l0,0
		C14.2,21.3,14.2,21.5,14.2,21.9z M10.8,20.7v-1.3h2.3v1.3H10.8z M14.3,18.7c-0.1,0-0.3,0-0.4,0c-0.2,0-0.3,0-0.5,0
		c-1.2,0-2.3,0-3.5,0c-0.1,0-0.2,0-0.3,0c-0.2-0.1-0.3-0.2-0.3-0.4c0-0.2,0.2-0.3,0.4-0.4c0,0,0.1,0,0.1,0h0c0.5,0,0.9,0,1.4,0H12
		c0.7,0,1.4,0,2,0h0c0,0,0.1,0,0.1,0c0.3,0,0.4,0.2,0.4,0.4C14.7,18.5,14.5,18.7,14.3,18.7z M20,10.7c-1.7,2.3-3.3,4.5-5,6.8l0,0
		l-0.5-0.3l0,0c1-2.8,2-5.7,3.1-8.6l0-0.1l0.1,0.1c0.1,0.1,0.1,0.2,0.2,0.3c0.2,0.2,0.3,0.4,0.4,0.5c0.3,0.5,0.7,0.8,1.1,1
		c0.1,0.1,0.2,0.1,0.4,0.2C19.9,10.5,19.9,10.5,20,10.7L20,10.7L20,10.7z M22.3,9.5c-0.4,0.3-0.9,0.5-1.4,0.5
		c-0.7,0-1.3-0.3-1.7-0.8l-0.1-0.1c-0.5-0.6-1.1-1.3-1.7-1.8c-1.4-1.1-2.9-1.7-4.6-1.9C10.2,5.2,8,6,6.1,7.8c-0.4,0.3-0.7,0.8-1,1.2
		L5,9.1c-0.6,0.8-1.4,1.1-2.3,1C2,9.9,1.3,9.4,1,8.6C0.7,7.9,0.8,7.1,1.2,6.4c2.1-2.9,5-4.8,8.5-5.4c0.3-0.1,0.5-0.1,0.7-0.1
		c0.4,0,0.7-0.1,1.1-0.1c0.2,0,0.3,0,0.5,0c4.5,0.2,8.1,2,10.7,5.6C23.5,7.4,23.3,8.8,22.3,9.5z"/>
	<path d="M10.6,23.1l3,0c0.2,0,0.1,0,0.3,0c0,0,0,0,0,0c-0.8,0-3,0-3.8,0C10.3,23.2,10.5,23.1,10.6,23.1z"/>
</g>
<path class="st1" d="M12,0.8c-0.5,0-1,0.1-1.5,0.1C10.3,1,10,1,9.8,1C6.2,1.7,3.4,3.5,1.3,6.5c-1,1.4-0.2,3.3,1.5,3.5
	C3.7,10.1,4.4,9.7,5,9c0.3-0.4,0.7-0.9,1.1-1.3c1.9-1.8,4.1-2.6,6.7-2.4c1.7,0.1,3.3,0.8,4.6,1.9c0.7,0.6,1.2,1.2,1.8,1.9
	c0.8,1,2.1,1.1,3.1,0.3c0.9-0.7,1.1-2.1,0.4-3.1C20.1,2.8,16.5,1,12,0.8z M22.3,9.5c-1,0.7-2.3,0.6-3.1-0.3l-0.1-0.1
	c-0.5-0.7-1.1-1.3-1.7-1.9c-1.4-1.1-3-1.7-4.7-1.9c-0.3,0-0.5,0-0.8,0C9.7,5.3,7.7,6.1,6,7.7C5.7,8.1,5.3,8.5,5,8.9L4.9,9
	c-0.6,0.7-1.3,1-2.2,0.9C2,9.8,1.4,9.3,1.1,8.6C0.8,7.9,0.9,7.1,1.3,6.5c2.1-2.9,4.9-4.7,8.5-5.4C10.1,1,10.3,1,10.5,1
	c0.4,0,0.7-0.1,1.1-0.1c0.2,0,0.3,0,0.5,0c4.5,0.2,8.1,2,10.7,5.6C23.4,7.4,23.2,8.8,22.3,9.5z"/>
<path class="st1" d="M12,0.8c-0.2,0-0.3,0-0.5,0c-0.3,0-0.7,0-1.1,0.1C10.3,0.9,10,0.9,9.8,1C6.2,1.7,3.3,3.5,1.2,6.4
	C0.8,7.1,0.7,7.9,1,8.6C1.3,9.4,2,9.9,2.8,10c0.9,0.1,1.6-0.2,2.3-1l0.1-0.1c0.3-0.4,0.6-0.8,1-1.2C8,6,10.2,5.2,12.7,5.4
	c1.7,0.1,3.2,0.8,4.6,1.9c0.7,0.5,1.2,1.2,1.7,1.8l0.1,0.1c0.4,0.6,1.1,0.8,1.7,0.8c0.5,0,1-0.2,1.4-0.5c1-0.7,1.2-2.2,0.4-3.1
	C20.2,2.8,16.5,0.9,12,0.8z M22.3,9.5c-1,0.8-2.4,0.6-3.1-0.3c-0.5-0.7-1.1-1.4-1.8-1.9c-1.4-1.1-2.9-1.7-4.6-1.9
	C10.2,5.2,7.9,6,6.1,7.8C5.7,8.1,5.3,8.6,5,9C4.4,9.7,3.7,10.1,2.8,10C1.1,9.7,0.3,7.8,1.3,6.5C3.4,3.5,6.2,1.7,9.8,1
	C10,1,10.3,1,10.5,0.9c0.5,0,1-0.1,1.5-0.1c4.5,0.2,8.1,2,10.7,5.6C23.4,7.4,23.2,8.8,22.3,9.5z"/>
<g>
	<path class="st1" d="M14.1,22.9c0-0.3,0-0.6,0-0.9c0-0.5,0-0.6-0.3-0.6c-0.1,0-0.1,0-0.2,0h-3c0,0,0,0,0,0c-0.2,0-0.3,0-0.5,0
		c-0.2,0-0.3,0.1-0.3,0.3c0,0.4,0,0.8,0,1.3c0,0.1,0.1,0.2,0.2,0.2c0,0,0,0,0.1,0c0.7,0,3,0,3.8,0C14.1,23.1,14.1,23,14.1,22.9z
		 M9.9,22.9c0-0.3,0-0.7,0-1c0-0.1,0-0.2,0-0.3c0-0.1,0-0.1,0-0.2c0,0,0.1,0,0.2,0c0.1,0,0.2,0,0.3,0l3.1,0c0.1,0,0.2,0,0.2,0
		c0.3,0,0.3,0,0.3,0.4c0,0,0,0.1,0,0.2l0,0.3c0,0.2,0,0.4,0,0.6c0,0.1,0,0.1,0,0.1c0,0,0,0-0.1,0h-3.9c0,0,0,0,0,0
		C10,23.1,9.9,23,9.9,22.9z"/>
	<path class="st1" d="M5.3,9.8C5,10.2,4.5,10.4,4,10.6c1.7,2.3,3.3,4.5,5,6.8c0.1-0.1,0.3-0.1,0.4-0.2c-1-2.9-2-5.7-3.1-8.6
		C6,9,5.6,9.4,5.3,9.8z M9,17.3l-4.9-6.7c0.6-0.2,0.9-0.5,1.2-0.8C5.6,9.5,5.8,9.3,6,9c0.1-0.1,0.2-0.2,0.3-0.3l3,8.5
		C9.2,17.2,9.1,17.3,9,17.3z"/>
	<path class="st1" d="M10.4,6.3c0.2,1.4,0.3,2.7,0.5,4c0.3,2.2,0.6,4.4,0.9,6.6c0,0.3,0,0.3,0.4,0.2c0.5-3.6,0.9-7.2,1.4-10.8
		C12.5,6.1,11.5,6.1,10.4,6.3z M13.5,6.3l-0.1,0.6c-0.4,3.4-0.9,6.7-1.3,10.1c-0.1,0-0.2,0-0.2,0c0,0,0-0.1-0.1-0.2
		c-0.1-1-0.3-2-0.4-3c-0.2-1.2-0.3-2.4-0.5-3.5c-0.1-1.1-0.3-2.2-0.4-3.3l-0.1-0.7C11.5,6.1,12.5,6.1,13.5,6.3z"/>
	<path class="st1" d="M7.1,7.9C6.9,8,6.9,8.1,7,8.2c0.5,1.5,1.1,3,1.6,4.5c0.5,1.4,1,2.9,1.5,4.3c0,0.1,0.1,0.2,0.2,0.2
		c0.3,0,0.5,0,0.8,0c-0.5-3.6-0.9-7.1-1.4-10.7C8.7,6.8,7.9,7.2,7.1,7.9z M10.9,17.1c-0.2,0-0.4,0-0.6,0c0,0-0.1-0.1-0.1-0.2
		c-0.5-1.4-1-2.8-1.5-4.1l-0.5-1.5c-0.4-1-0.7-2.1-1.1-3.1C7,8.1,7,8,7.1,7.9C8,7.2,8.7,6.8,9.7,6.5L11,17.1
		C11,17.1,10.9,17.1,10.9,17.1z"/>
	<path class="st1" d="M13.9,16.9c0.7-2,1.4-4,2.1-6c0.3-1,0.7-1.9,1-2.9c-0.8-0.7-1.7-1.2-2.8-1.5c-0.5,3.6-0.9,7.1-1.4,10.7
		c0.2,0,0.4,0,0.7,0C13.8,17.1,13.9,17.1,13.9,16.9z M13,17.1l1.4-10.5c1,0.3,1.9,0.8,2.7,1.5l-1.6,4.3c-0.5,1.5-1.1,3-1.6,4.5
		c-0.1,0.2-0.1,0.2-0.3,0.2c-0.1,0-0.2,0-0.2,0C13.2,17.1,13.1,17.1,13,17.1z"/>
	<path class="st1" d="M18.4,9.4c-0.2-0.3-0.4-0.5-0.6-0.8c-1,2.9-2.1,5.8-3.1,8.6c0.1,0.1,0.2,0.1,0.4,0.2c1.7-2.3,3.3-4.5,5-6.8
		c-0.2-0.1-0.4-0.2-0.5-0.2C19,10.1,18.7,9.8,18.4,9.4z M19.9,10.6c-1.6,2.2-3.3,4.5-4.9,6.7l-0.3-0.2c1-2.8,2-5.6,3-8.5
		c0.1,0.1,0.1,0.1,0.2,0.2c0.1,0.2,0.3,0.4,0.4,0.5c0.4,0.5,0.7,0.8,1.1,1c0.1,0.1,0.2,0.1,0.4,0.2C19.8,10.6,19.9,10.6,19.9,10.6z"
		/>
	<path class="st1" d="M14.3,17.9c-0.1,0-0.1,0-0.2,0c-0.7,0-1.4,0-2,0c-0.7,0-1.4,0-2.1,0c-0.1,0-0.1,0-0.2,0
		c-0.2,0-0.3,0.1-0.3,0.3c0,0.2,0.1,0.3,0.3,0.4c0.1,0,0.2,0,0.3,0c1.2,0,2.3,0,3.5,0c0.3,0,0.6,0,0.9,0c0.2,0,0.4-0.2,0.4-0.4
		C14.6,18.1,14.5,17.9,14.3,17.9z M14.3,18.6c-0.1,0-0.3,0-0.4,0c-0.2,0-0.3,0-0.5,0c-1.2,0-2.3,0-3.5,0c-0.1,0-0.2,0-0.2,0
		c-0.2,0-0.3-0.2-0.2-0.3c0-0.2,0.1-0.3,0.3-0.3c0,0,0.1,0,0.1,0c0,0,0,0,0,0h0c0.5,0,0.9,0,1.4,0H12c0.7,0,1.4,0,2,0h0
		c0,0,0.1,0,0.1,0c0.2,0,0.3,0.1,0.3,0.3C14.6,18.4,14.5,18.6,14.3,18.6z"/>
	<path class="st1" d="M22.3,4.7L22.3,4.7c-1.7-1.9-3.7-3.2-6.1-4c-1-0.3-2.1-0.5-3.2-0.6c-0.1,0-0.1,0-0.2,0c0,0-0.1,0-0.1,0l-1.5,0
		c0,0-0.1,0-0.1,0c-0.1,0-0.1,0-0.2,0C9.3,0.2,7.7,0.6,6.2,1.3C4,2.3,2.1,3.9,0.7,5.9C0,6.9-0.1,8,0.4,9c0.5,1.1,1.4,1.7,2.6,1.8
		c0.1,0,0.2,0.1,0.3,0.2c0.7,1,1.5,2,2.2,3c1,1.3,2,2.7,2.9,4c0.1,0.1,0.1,0.3,0.2,0.4c0.1,0.6,0.5,1.1,1.2,1.1c0,0,0.1,0,0.1,0
		c0.1,0,0.1,0,0.2,0v1.1c-0.6,0.1-1,0.4-1,1c0,0.5,0,0.9,0,1.3c0,0.6,0.4,1,1,1c0.6,0,1.2,0,1.8,0c0.7,0,1.4,0,2,0c0.6,0,1-0.4,1-1
		c0-0.5,0-1,0-1.4c0-0.5-0.4-0.9-0.9-0.9c0,0-0.1,0-0.1,0v-1.1H14c0.1,0,0.1,0,0.2,0c0.7,0,1.2-0.5,1.2-1.2c0-0.1,0-0.2,0.1-0.2
		c1.9-2.6,3.6-5,5.2-7.1c0.1-0.1,0.2-0.1,0.3-0.1c1.2-0.1,2-0.6,2.6-1.6c0.1-0.2,0.2-0.5,0.3-0.7c0-0.1,0.1-0.2,0.1-0.3l0-0.7
		C23.8,6.3,23,5.5,22.3,4.7z M23.9,8.1c-0.1,0.3-0.2,0.7-0.4,1c-0.5,1-1.4,1.5-2.5,1.6c-0.1,0-0.2,0.1-0.3,0.2
		c-1.7,2.4-3.5,4.7-5.2,7.1c-0.1,0.1-0.1,0.2-0.1,0.2c0,0.7-0.5,1.1-1.2,1.1c-0.1,0-0.2,0-0.3,0c0,0.4,0,0.8,0,1.2
		c0.1,0,0.1,0,0.2,0c0.5,0.1,0.8,0.4,0.8,0.9c0,0.5,0,0.9,0,1.4c0,0.5-0.4,0.9-1,0.9c-1.3,0-2.6,0-3.8,0c-0.6,0-1-0.4-1-0.9
		c0-0.4,0-0.9,0-1.3c0-0.6,0.3-0.9,1-1c0-0.4,0-0.8,0-1.2c-0.1,0-0.2,0-0.4,0c-0.6,0-1-0.4-1.1-1c0-0.1-0.1-0.3-0.2-0.4
		c-1.7-2.3-3.4-4.7-5.1-7c-0.1-0.1-0.2-0.2-0.3-0.2C1.8,10.7,0.9,10.1,0.4,9C-0.1,7.9,0,6.9,0.7,5.9c1.4-2,3.3-3.5,5.5-4.6
		c1.5-0.7,3-1.1,4.7-1.2c0.1,0,0.2,0,0.3,0c0.5,0,1,0,1.5,0c0.1,0,0.2,0,0.3,0c1.1,0.1,2.1,0.3,3.2,0.6c2.4,0.8,4.4,2.1,6,3.9
		c0.7,0.8,1.4,1.6,1.6,2.7C23.9,7.6,23.9,7.9,23.9,8.1z"/>
	<path class="st1" d="M10.9,20.6c0.8,0,1.5,0,2.2,0c0-0.4,0-0.8,0-1.2c-0.8,0-1.5,0-2.2,0C10.9,19.8,10.9,20.2,10.9,20.6z
		 M10.9,19.4h2.1v1.1h-2.1V19.4z"/>
	<path class="st1" d="M14.3,17.8c0,0-0.1,0-0.1,0h0c-0.7,0-1.4,0-2,0h-0.7c-0.5,0-0.9,0-1.4,0h0c0,0-0.1,0-0.1,0
		c-0.2,0-0.4,0.2-0.4,0.4c0,0.2,0.1,0.4,0.3,0.4c0.1,0,0.2,0,0.3,0c1.2,0,2.3,0,3.5,0c0.2,0,0.3,0,0.5,0c0.1,0,0.3,0,0.4,0
		c0.2,0,0.4-0.2,0.4-0.4C14.7,18,14.5,17.9,14.3,17.8z M14.3,18.6c-0.3,0-0.6,0-0.9,0c-1.2,0-2.3,0-3.5,0c-0.1,0-0.2,0-0.3,0
		c-0.2-0.1-0.3-0.2-0.3-0.4c0-0.2,0.1-0.3,0.3-0.3c0.1,0,0.1,0,0.2,0c0.7,0,1.4,0,2.1,0c0.7,0,1.4,0,2,0c0.1,0,0.1,0,0.2,0
		c0.2,0,0.4,0.2,0.4,0.4C14.6,18.5,14.5,18.6,14.3,18.6z"/>
	<path class="st1" d="M13.8,21.3c-0.1,0-0.1,0-0.2,0h-3.1c-0.1,0-0.2,0-0.3,0c-0.1,0-0.2,0-0.2,0.1c-0.1,0.1-0.1,0.1-0.1,0.2
		c0,0.1,0,0.2,0,0.3c0,0.3,0,0.7,0,1c0,0.1,0.1,0.1,0.1,0.2v0c0,0,0.1,0,0.2,0c0,0,0,0-0.1,0c-0.1,0-0.2-0.1-0.2-0.2
		c0-0.4,0-0.8,0-1.3c0-0.2,0.1-0.3,0.3-0.3c0.2,0,0.3,0,0.5,0c0,0,0,0,0,0h3C13.7,21.4,13.8,21.4,13.8,21.3L13.8,21.3L13.8,21.3
		c0.4,0.1,0.3,0.1,0.3,0.7c0,0.3,0,0.6,0,0.9c0,0.2-0.1,0.2-0.2,0.2c0.2,0,0.3,0,0.3,0c0,0-0.1,0-0.3,0c0,0,0,0,0,0
		c-0.2,0-0.1,0-0.3,0l-3,0c-0.2,0-0.3,0-0.5,0c-0.1,0-0.2,0-0.2,0v0h0.1c0.1,0,0.1,0,0.2,0c0.1,0,0.1,0,0.2,0c0.1,0,0.1,0,0.2,0l3,0
		v0c0.1,0,0.1,0,0.1,0c0,0,0,0,0.1,0c0,0,0,0,0.1,0h0.2v-0.1h0c0,0,0-0.1,0-0.2c0-0.2,0-0.4,0-0.6V22c0-0.1,0-0.1,0-0.2
		C14.2,21.5,14.2,21.3,13.8,21.3L13.8,21.3z"/>
	<path class="st1" d="M10.8,19.3v1.3h2.3v-1.3H10.8z M13.1,20.6c-0.7,0-1.5,0-2.2,0c0-0.4,0-0.8,0-1.2c0.7,0,1.5,0,2.2,0
		C13.1,19.8,13.1,20.2,13.1,20.6z"/>
	<path class="st1" d="M16.2,0.8c-1-0.3-2.1-0.5-3.2-0.6c-0.1,0-0.2,0-0.3,0c-0.5,0-1,0-1.5,0c-0.1,0-0.2,0-0.3,0
		C9.3,0.3,7.7,0.7,6.3,1.4C4,2.4,2.2,3.9,0.7,5.9C0,6.9-0.1,7.9,0.4,9c0.5,1.1,1.4,1.7,2.6,1.7c0.2,0,0.2,0.1,0.3,0.2
		c1.7,2.3,3.4,4.7,5.1,7c0.1,0.1,0.1,0.3,0.2,0.4c0.1,0.6,0.5,1,1.1,1c0.1,0,0.2,0,0.4,0c0,0.4,0,0.8,0,1.2c-0.6,0.1-1,0.4-1,1
		c0,0.4,0,0.9,0,1.3c0,0.6,0.4,0.9,1,0.9c1.3,0,2.6,0,3.8,0c0.6,0,0.9-0.4,1-0.9c0-0.5,0-0.9,0-1.4c0-0.5-0.3-0.8-0.8-0.9
		c-0.1,0-0.1,0-0.2,0c0-0.4,0-0.8,0-1.2c0.1,0,0.2,0,0.3,0c0.7,0,1.1-0.4,1.2-1.1c0-0.1,0-0.2,0.1-0.2c1.7-2.4,3.5-4.7,5.2-7.1
		c0.1-0.1,0.2-0.2,0.3-0.2c1.1-0.1,2-0.6,2.5-1.6c0.2-0.3,0.2-0.7,0.4-1c0-0.2,0-0.5,0-0.7c-0.2-1.1-0.9-1.9-1.6-2.7
		C20.6,2.8,18.6,1.5,16.2,0.8z M23.8,8.1c0,0.1-0.1,0.2-0.1,0.3c-0.1,0.2-0.1,0.5-0.3,0.7c-0.5,1-1.4,1.5-2.5,1.6
		c-0.1,0-0.3,0.1-0.3,0.2c-1.6,2.1-3.3,4.5-5.2,7.1c-0.1,0.1-0.1,0.2-0.1,0.3c0,0.7-0.5,1.1-1.1,1.1c-0.1,0-0.1,0-0.2,0h-0.2v1.3
		l0.1,0c0,0,0.1,0,0.1,0c0.4,0.1,0.8,0.4,0.8,0.9c0,0.4,0,0.9,0,1.4c0,0.5-0.4,0.9-0.9,0.9c-1.2,0-2.5,0-3.8,0
		c-0.5,0-0.9-0.4-0.9-0.9c0-0.4,0-0.9,0-1.3c0-0.5,0.3-0.8,0.9-0.9l0,0v-1.3h0c0,0-0.1,0-0.1,0c-0.1,0-0.2,0-0.2,0
		c-0.6,0-1-0.4-1.1-1c0-0.2-0.1-0.3-0.2-0.4c-1-1.3-2-2.7-2.9-4c-0.7-1-1.5-2-2.2-3c-0.1-0.1-0.2-0.2-0.4-0.2C1.8,10.6,0.9,10,0.4,9
		C0,8,0.1,6.9,0.8,6c1.4-2,3.3-3.5,5.5-4.6c1.5-0.7,3-1.1,4.7-1.2c0.1,0,0.1,0,0.2,0c0,0,0.1,0,0.1,0l1.5,0c0,0,0.1,0,0.1,0
		c0.1,0,0.1,0,0.2,0c1.1,0.1,2.1,0.3,3.1,0.6c2.4,0.8,4.4,2.1,6,3.9l0,0c0.7,0.8,1.4,1.6,1.6,2.7V8.1z"/>
	<path class="st1" d="M9.5,17.2L6.4,8.5l0-0.1L6.3,8.5C6.2,8.7,6.1,8.8,6,8.9C5.7,9.2,5.5,9.5,5.3,9.7C5,10.1,4.6,10.3,4,10.6
		l-0.1,0l5,6.8l0,0l0,0C9.2,17.3,9.3,17.3,9.5,17.2L9.5,17.2z M9,17.4c-1.7-2.2-3.3-4.5-5-6.8c0.5-0.2,0.9-0.4,1.3-0.8
		C5.6,9.4,6,9,6.3,8.6c1,2.9,2.1,5.8,3.1,8.6C9.3,17.2,9.2,17.3,9,17.4z"/>
	<path class="st1" d="M12.9,17.2L12.9,17.2c0.1,0,0.2,0,0.3,0c0.1,0,0.3,0,0.4,0c0,0,0,0,0.1,0c0.2,0,0.3-0.1,0.3-0.3
		c0.5-1.5,1.1-3,1.6-4.5L17.2,8l0,0c-0.9-0.7-1.8-1.2-2.8-1.6l-0.1,0L12.9,17.2L12.9,17.2z M14.3,6.5c1,0.3,2,0.8,2.8,1.5
		c-0.3,1-0.7,1.9-1,2.9c-0.7,2-1.4,4-2.1,6c-0.1,0.2-0.2,0.3-0.3,0.2c-0.2,0-0.4,0-0.7,0C13.4,13.6,13.9,10,14.3,6.5z"/>
	<path class="st1" d="M9.7,6.4L9.7,6.4C8.7,6.7,7.9,7.1,7,7.8C6.9,8,6.9,8.1,6.9,8.2c0.4,1,0.7,2.1,1.1,3.1l0.5,1.5
		c0.5,1.4,1,2.7,1.5,4.1c0,0.1,0.1,0.2,0.2,0.2c0.1,0,0.2,0,0.4,0c0.1,0,0.3,0,0.4,0h0.1L9.7,6.4L9.7,6.4z M10.3,17.1
		c-0.1,0-0.2-0.1-0.2-0.2c-0.5-1.4-1-2.8-1.5-4.3C8,11.2,7.5,9.7,7,8.2C6.9,8.1,6.9,8,7.1,7.9c0.9-0.7,1.6-1.1,2.6-1.4
		c0.5,3.5,0.9,7.1,1.4,10.7C10.8,17.1,10.5,17.1,10.3,17.1z"/>
	<path class="st1" d="M10.4,6.2L10.4,6.2L10.5,7c0.1,1.1,0.3,2.2,0.4,3.3c0.2,1.2,0.3,2.4,0.5,3.5c0.1,1,0.3,2,0.4,3
		c0,0.2,0,0.2,0.1,0.3c0,0,0.1,0,0.1,0c0.1,0,0.1,0,0.2,0l0,0l0,0c0.4-3.4,0.9-6.8,1.3-10.1l0.1-0.7l0,0C12.5,6,11.5,6,10.4,6.2z
		 M12.2,17.1c-0.3,0.1-0.3,0.1-0.4-0.2c-0.3-2.2-0.6-4.4-0.9-6.6c-0.2-1.3-0.3-2.7-0.5-4c1.1-0.2,2.1-0.2,3.2,0
		C13.1,9.9,12.7,13.5,12.2,17.1z"/>
	<path class="st1" d="M19.8,10.5c-0.1-0.1-0.2-0.1-0.4-0.2c-0.4-0.2-0.7-0.5-1.1-1C18.3,9.2,18.1,9,18,8.8c-0.1-0.1-0.1-0.2-0.2-0.3
		l-0.1-0.1l0,0.1c-1,2.9-2.1,5.8-3.1,8.6l0,0l0.5,0.3l0,0c1.7-2.3,3.3-4.5,5-6.8l0,0l-0.1,0C19.9,10.5,19.9,10.5,19.8,10.5z
		 M15,17.4c-0.1-0.1-0.2-0.1-0.4-0.2c1-2.8,2-5.7,3.1-8.6c0.2,0.3,0.4,0.5,0.6,0.8c0.3,0.4,0.6,0.8,1.1,1c0.2,0.1,0.3,0.2,0.5,0.2
		C18.3,12.9,16.7,15.1,15,17.4z"/>
</g>
</svg>
