<?xml version="1.0" encoding="utf-8"?>
<!-- Generator: Adobe Illustrator 22.1.0, SVG Export Plug-In . SVG Version: 6.00 Build 0)  -->
<svg version="1.1" id="레이어_1" xmlns="http://www.w3.org/2000/svg" xmlns:xlink="http://www.w3.org/1999/xlink" x="0px"
	 y="0px" viewBox="0 0 24 24" style="enable-background:new 0 0 24 24;" xml:space="preserve">
<style type="text/css">
	.st0{fill:#333333;}
</style>
<path class="st0" d="M23.5,23h-6l-1.4-3.5c0.4-0.2,0.8-0.4,1.2-0.7c0.3,0.3,0.7,0.4,1.1,0.4h0.8c0.9,0,1.7-0.8,1.7-1.7v-0.8
	c0-0.4-0.3-0.8-0.7-0.9c0.7-1,1.1-2.2,1.3-3.4h0.1c0.9,0,1.7-0.8,1.7-1.7V10c0-0.5-0.4-0.9-0.9-0.9h-0.8C21.3,8,20.9,7,20.3,6
	c0.3-0.3,0.5-0.7,0.5-1.2V4.1c0-0.5-0.4-0.9-0.9-0.9h-2.1c-1.1-0.8-2.4-1.4-3.8-1.7V0.9c0-0.5-0.4-0.9-0.9-0.9h-2.4
	c-0.5,0-0.9,0.4-0.9,0.9v0.5C8.6,1.7,7.3,2.3,6.2,3.2H4.1c-0.5,0-0.9,0.4-0.9,0.9v0.8c0,0.4,0.2,0.9,0.5,1.2C3.1,7,2.7,8,2.5,9.1
	H1.7c-0.5,0-0.9,0.4-0.9,0.9v0.8c0,0.9,0.8,1.7,1.7,1.7h0.1c0.2,1.2,0.7,2.4,1.3,3.4c-0.4,0.1-0.7,0.5-0.7,0.9v0.8
	c0,0.9,0.8,1.7,1.7,1.7h0.8c0.4,0,0.8-0.1,1.1-0.4c0.4,0.2,0.8,0.5,1.2,0.7L6.5,23h-6C0.2,23,0,23.2,0,23.5C0,23.8,0.2,24,0.5,24h23
	c0.3,0,0.5-0.2,0.5-0.5C24,23.2,23.8,23,23.5,23z M6.3,16.9v0.7c0,0.4-0.3,0.7-0.7,0.7H4.9c-0.4,0-0.7-0.3-0.7-0.7v-0.7H6.3z
	 M6.3,4.9c0,0.4-0.3,0.7-0.7,0.7H4.9c-0.1,0-0.2,0-0.3-0.1l0,0h0C4.3,5.4,4.2,5.1,4.2,4.9V4.2h2.2V4.9z M4.9,6.5h0.8
	c0.4,0,0.7-0.1,1-0.4l3.5,3.5c-0.1,0.2-0.2,0.4-0.2,0.6H5V10c0-0.5-0.4-0.9-0.9-0.9H3.5c0.2-0.9,0.5-1.8,1-2.6
	C4.6,6.5,4.8,6.5,4.9,6.5z M5,15.9c-0.7-1-1.2-2.2-1.5-3.4c0.6-0.1,1.2-0.6,1.3-1.2H10c0,0.2,0.1,0.4,0.2,0.6l-4,4H5z M3.3,11.5H2.5
	c-0.4,0-0.7-0.3-0.7-0.7v-0.7H4v0.7C4,11.2,3.7,11.5,3.3,11.5z M19.8,16.9v0.7c0,0.4-0.3,0.7-0.7,0.7h-0.8c-0.2,0-0.5-0.1-0.6-0.3
	c0,0,0-0.1-0.1-0.1c0,0,0,0,0,0c0,0,0-0.1,0-0.1c0,0,0-0.1,0-0.1v-0.7H19.8z M7.2,16.3l3.3-3.3l-2.3,5.6c-0.4-0.2-0.7-0.4-1-0.6
	c0-0.2,0.1-0.3,0.1-0.5v-0.8C7.3,16.6,7.3,16.4,7.2,16.3z M13.1,19.9c0,0.4-0.3,0.7-0.7,0.7h-0.8c-0.4,0-0.7-0.3-0.7-0.7v-0.7h2.2
	V19.9z M11.5,18.2h-0.7c-0.5,0-0.9,0.4-0.9,0.9v0C9.7,19.1,9.4,19,9.2,19l2.3-5.7V18.2z M14.1,19.2L14.1,19.2c0-0.5-0.4-0.9-0.9-0.9
	h-0.7v-4.9l2.3,5.6C14.5,19.1,14.3,19.1,14.1,19.2z M12,9.7c0.6,0,1.1,0.5,1.1,1.1s-0.5,1.1-1.1,1.1c-0.6,0-1.1-0.5-1.1-1.1
	S11.4,9.7,12,9.7z M11.5,8.8c-0.2,0-0.4,0.1-0.6,0.2L7.3,5.4C7.3,5.2,7.3,5,7.3,4.9V4.1c0-0.2,0-0.3-0.1-0.4c0.9-0.6,1.8-1,2.9-1.2
	c0.3,0.6,0.8,0.9,1.4,1V8.8z M8.8,19.9c0.4,0.1,0.7,0.2,1.1,0.3c0.1,0.8,0.8,1.4,1.7,1.4h0.8c0.8,0,1.5-0.6,1.7-1.4
	c0.4-0.1,0.8-0.2,1.1-0.3l1.3,3.1H7.6L8.8,19.9z M16.7,17.7L16.7,17.7L16.7,17.7L16.7,17.7c0,0.1,0,0.1,0,0.1c0,0,0,0.1,0,0.2l0,0
	c-0.3,0.2-0.6,0.4-1,0.6l-2.3-5.7l3.4,3.4c-0.1,0.1-0.1,0.3-0.1,0.5v0.8C16.7,17.6,16.7,17.7,16.7,17.7z M16.7,4.1v0.8
	c0,0.2,0,0.3,0.1,0.5L13.1,9c-0.2-0.1-0.4-0.2-0.6-0.2V3.4c0.6,0,1.2-0.4,1.4-1c1,0.2,2,0.6,2.9,1.2C16.7,3.8,16.7,3.9,16.7,4.1z
	 M19,10v0.3h-5c0-0.2-0.1-0.4-0.2-0.6l3.5-3.5c0.3,0.2,0.7,0.4,1,0.4h0.8c0.1,0,0.2,0,0.3,0c0.5,0.8,0.8,1.7,1,2.6h-0.5
	C19.4,9.1,19,9.5,19,10z M14,11.3h5.1c0.2,0.6,0.7,1.1,1.3,1.2c-0.2,1.2-0.7,2.4-1.5,3.4h-1.2l-4-4C13.9,11.7,14,11.5,14,11.3z
	 M19.8,4.9c0,0.3-0.1,0.5-0.4,0.6l-0.1,0v0c-0.1,0-0.2,0-0.2,0h-0.8c-0.4,0-0.7-0.3-0.7-0.7V4.2h2.2V4.9z M20,10.8v-0.7h2.2v0.7
	c0,0.4-0.3,0.7-0.7,0.7h-0.8C20.3,11.5,20,11.2,20,10.8z M13.1,1.7C13.1,1.7,13.1,1.7,13.1,1.7L13.1,1.7c0,0.4-0.3,0.7-0.7,0.7h-0.8
	c-0.4,0-0.7-0.3-0.7-0.6l0,0l0,0l0,0l0,0c0,0,0,0,0,0V1h2.2V1.7z"/>
</svg>
